<svg xmlns="http://www.w3.org/2000/svg" viewBox="0 0 64 64">
  <defs>
    <linearGradient id="neon" x1="16" y1="15" x2="49" y2="51" gradientUnits="userSpaceOnUse">
      <stop stop-color="#8BE9FD"/>
      <stop offset=".48" stop-color="#BD93F9"/>
      <stop offset="1" stop-color="#FF79C6"/>
    </linearGradient>
  </defs>
  <rect width="64" height="64" rx="18" fill="#282A36"/>
  <path d="M12 31c-4-4 2-8 6-5 3 2 5-4 9-2 3 1 2 6 6 6s4-5 8-5c4 0 5 4 10 3" fill="none" stroke="#BD93F9" stroke-width="2" stroke-linecap="round" opacity=".72"/>
  <path d="M15 23c0-4 3-7 7-7h20c4 0 7 3 7 7v25H15V23Z" fill="#282A36" stroke="url(#neon)" stroke-width="4" stroke-linejoin="round"/>
  <path d="M20 22h24v13H20z" fill="#44475A" stroke="#8BE9FD" stroke-width="2.5" stroke-linejoin="round"/>
  <path d="M15 37h34" stroke="#FF79C6" stroke-width="3"/>
  <circle cx="23" cy="48" r="4" fill="#50FA7B" stroke="#282A36" stroke-width="2"/>
  <circle cx="41" cy="48" r="4" fill="#FFB86C" stroke="#282A36" stroke-width="2"/>
  <circle cx="22" cy="42" r="2" fill="#F1FA8C"/>
  <circle cx="42" cy="42" r="2" fill="#F1FA8C"/>
</svg>